<svg width="14" height="14" viewBox="0 0 14 14" xmlns="http://www.w3.org/2000/svg">
<path d="M1 13H13M2.33333 13V2.33333C2.33333 1.97971 2.47381 1.64057 2.72386 1.39052C2.97391 1.14048 3.31304 1 3.66667 1H10.3333C10.687 1 11.0261 1.14048 11.2761 1.39052C11.5262 1.64057 11.6667 1.97971 11.6667 2.33333V13M5 13V10.3333C5 9.97971 5.14048 9.64057 5.39052 9.39052C5.64057 9.14048 5.97971 9 6.33333 9H7.66667C8.02029 9 8.35943 9.14048 8.60948 9.39052C8.85952 9.64057 9 9.97971 9 10.3333V13M5.66667 5H8.33333M7 3.66667V6.33333" stroke="#2563EB" stroke-linecap="round" stroke-linejoin="round"/>
</svg>
